<svg width="36" height="25" viewBox="0 0 36 25" fill="none" xmlns="http://www.w3.org/2000/svg">
<path d="M25.2466 19.6851C25.6177 20.0288 26.0548 20.2936 26.5314 20.4633C27.0079 20.633 27.514 20.7041 28.0189 20.6724C28.819 20.6927 29.6035 20.4493 30.2516 19.9796C30.7795 19.6369 31.1791 19.128 31.3876 18.5359H35.1575C34.7558 20.2242 33.7754 21.7186 32.3866 22.7592C31.0534 23.644 29.4782 24.0924 27.8789 24.0426C26.7375 24.0575 25.6048 23.8427 24.548 23.4111C23.5917 23.0127 22.7341 22.4099 22.0353 21.6451C21.3394 20.8439 20.8046 19.9159 20.4603 18.9121C20.0743 17.7898 19.8853 16.6091 19.9018 15.4223C19.8945 14.2557 20.0899 13.0963 20.4793 11.9967C21.0044 10.4505 22.0047 9.10973 23.3372 8.16586C24.6698 7.22198 26.2664 6.72323 27.8993 6.74083C29.1053 6.71582 30.2978 6.99838 31.3643 7.56188C32.3283 8.0898 33.1595 8.83064 33.7968 9.72751C34.4479 10.6681 34.9145 11.7236 35.172 12.8382C35.455 14.0355 35.5556 15.2677 35.471 16.4957H24.2432C24.1514 17.6478 24.5116 18.7911 25.2466 19.6851ZM10.6311 0.955599C11.5765 0.938476 12.5206 1.03543 13.4428 1.24435C14.2196 1.4136 14.9571 1.72938 15.6157 2.17477C16.2253 2.61665 16.7065 3.21165 17.0128 3.89853C17.3642 4.74291 17.5334 5.65291 17.5101 6.56729C17.5508 7.57239 17.2941 8.56717 16.7722 9.4271C16.224 10.2388 15.4667 10.8873 14.5803 11.304C15.7838 11.6282 16.832 12.3713 17.5363 13.3996C18.213 14.489 18.5528 15.7548 18.5134 17.0367C18.5366 18.0586 18.3256 19.0723 17.8965 20.0001C17.5005 20.8104 16.9195 21.5163 16.2005 22.0607C15.4615 22.6002 14.6295 22.9992 13.7461 23.2376C12.8305 23.4913 11.8845 23.6183 10.9344 23.6153H0.5V0.955599H10.6311ZM10.2884 19.7682C10.7375 19.774 11.1867 19.7259 11.6242 19.6238C12.0243 19.5359 12.4036 19.3715 12.7413 19.1396C13.0738 18.9092 13.3407 18.5986 13.5201 18.2369C13.7271 17.7746 13.8234 17.27 13.7986 16.7655C13.8437 16.3048 13.7828 15.8399 13.6205 15.4064C13.4582 14.9728 13.1989 14.5822 12.8623 14.2644C12.1484 13.7393 11.2739 13.4789 10.389 13.5279H5.22648V19.7682H10.2884ZM30.1728 11.0663C29.8587 10.7521 29.4809 10.5089 29.0648 10.3531C28.6487 10.1974 28.204 10.1328 27.7608 10.1636C27.1723 10.1407 26.5879 10.2709 26.0647 10.5413C25.6501 10.7692 25.2844 11.0764 24.9884 11.4454C24.7248 11.7905 24.5288 12.1824 24.4109 12.6004C24.303 12.949 24.2359 13.3077 24.2112 13.6709H31.166C31.105 12.7234 30.76 11.8162 30.1758 11.0677L30.1728 11.0663ZM10.0288 10.1213C10.7721 10.1517 11.5037 9.92904 12.104 9.48981C12.6859 8.97209 12.9892 8.20647 12.9207 7.42917C12.9396 6.9815 12.8506 6.53584 12.6611 6.12979C12.4995 5.80718 12.249 5.5375 11.9392 5.35249C11.625 5.14883 11.2719 5.01275 10.9023 4.95291C10.5013 4.87451 10.0932 4.83882 9.68463 4.84645H5.22648V10.1417H10.0288V10.1213ZM32.0293 2.46936H23.3143V4.69624H32.0293V2.46936Z" fill="black"/>
</svg>
