<svg width="36" height="35" viewBox="0 0 36 35" fill="none" xmlns="http://www.w3.org/2000/svg">
<path d="M30.3185 29.8258H25.1356V21.7044C25.1356 19.7677 25.0963 17.2754 22.4348 17.2754C19.7325 17.2754 19.3198 19.3827 19.3198 21.5615V29.8258H14.1369V13.125H19.1156V15.4015H19.1827C19.8783 14.089 21.57 12.7035 24.0973 12.7035C29.3488 12.7035 30.32 16.1598 30.32 20.6588L30.3185 29.8258ZM8.28313 10.8398C6.61479 10.8398 5.27458 9.48938 5.27458 7.82833C5.27458 6.16875 6.61625 4.81979 8.28313 4.81979C9.94563 4.81979 11.2931 6.16875 11.2931 7.82833C11.2931 9.48938 9.94417 10.8398 8.28313 10.8398ZM10.8819 29.8258H5.68438V13.125H10.8819V29.8258ZM32.9115 0H3.08271C1.655 0 0.5 1.12875 0.5 2.52146V32.4785C0.5 33.8727 1.655 35 3.08271 35H32.9071C34.3333 35 35.5 33.8727 35.5 32.4785V2.52146C35.5 1.12875 34.3333 0 32.9071 0H32.9115Z" fill="black"/>
</svg>
