<svg width="36" height="29" viewBox="0 0 36 29" fill="none" xmlns="http://www.w3.org/2000/svg">
<path d="M4 28.5C3.0375 28.5 2.21383 28.1576 1.529 27.4727C0.844167 26.7879 0.501167 25.9637 0.5 25V4C0.5 3.0375 0.843 2.21383 1.529 1.529C2.215 0.844166 3.03867 0.501167 4 0.5H32C32.9625 0.5 33.7867 0.843 34.4727 1.529C35.1587 2.215 35.5012 3.03867 35.5 4V25C35.5 25.9625 35.1576 26.7867 34.4727 27.4727C33.7879 28.1587 32.9637 28.5012 32 28.5H4ZM18 16.25L4 7.5V25H32V7.5L18 16.25ZM18 12.75L32 4H4L18 12.75ZM4 7.5V4V25V7.5Z" fill="black"/>
</svg>
