<svg width="38" height="39" viewBox="0 0 38 39" fill="none" xmlns="http://www.w3.org/2000/svg">
<path d="M28.625 9.875H28.6425M10.25 2H27.75C32.5825 2 36.5 5.91751 36.5 10.75V28.25C36.5 33.0825 32.5825 37 27.75 37H10.25C5.41751 37 1.5 33.0825 1.5 28.25V10.75C1.5 5.91751 5.41751 2 10.25 2ZM26 18.3975C26.216 19.8539 25.9672 21.3414 25.2891 22.6483C24.611 23.9552 23.538 25.015 22.2228 25.6769C20.9077 26.3389 19.4173 26.5693 17.9636 26.3354C16.51 26.1015 15.1671 25.4151 14.126 24.374C13.0849 23.3329 12.3985 21.99 12.1646 20.5364C11.9307 19.0827 12.1611 17.5923 12.8231 16.2772C13.485 14.962 14.5448 13.889 15.8517 13.2109C17.1586 12.5328 18.6461 12.284 20.1025 12.5C21.5881 12.7203 22.9635 13.4126 24.0255 14.4745C25.0874 15.5365 25.7797 16.9119 26 18.3975Z" stroke="#1E1E1E" stroke-width="3" stroke-linecap="round" stroke-linejoin="round"/>
</svg>
